Land_normalized_Motion_pl17
version=1
nRows=25
nColumns=43
inDegrees=yes
endheader
time		pelvis_tilt		pelvis_list		pelvis_rotation		pelvis_tx		pelvis_ty		pelvis_tz		hip_flexion_r		hip_adduction_r		hip_rotation_r		knee_angle_r		ankle_angle_r		subtalar_angle_r		mtp_angle_r		hip_flexion_l		hip_adduction_l		hip_rotation_l		knee_angle_l		ankle_angle_l		subtalar_angle_l		mtp_angle_l		lumbar_extension		lumbar_bending		lumbar_rotation		neck_flexion		neck_lateral_bending		neck_rotation		arm_flex_r		arm_add_r		arm_rot_r		elbow_flex_r		pro_sup_r		wrist_flex_r		wrist_dev_r		hand_finger_flex_r		arm_flex_l		arm_add_l		arm_rot_l		elbow_flex_l		pro_sup_l		wrist_flex_l		wrist_dev_l		hand_finger_flex_l		
1.345833		-0.251954		2.464506		88.012558		0.007573		0.458924		0.508128		91.233528		-0.113362		-2.933393		-136.480244		17.405281		-0.607886		42.416957		88.778670		-12.961883		0.851357		-136.615373		19.956429		12.182106		42.214422		-65.755765		-1.682207		-2.586327		10.488072		-6.379487		4.674640		63.490755		-28.910458		17.969288		71.713084		122.312964		-18.789279		2.601122		21.758229		52.815618		-40.925833		7.274070		78.945406		107.097339		-13.108572		-1.625652		18.665491		
1.349066		-0.531593		2.278579		87.881679		0.008000		0.454771		0.507052		91.824945		-0.043607		-2.796806		-137.069057		17.901159		-0.652394		42.064089		89.198033		-13.151615		0.538936		-137.141872		20.279289		12.012169		42.337041		-65.725346		-2.008488		-2.559289		10.301287		-6.207105		4.478791		64.991524		-28.647621		18.270900		71.444872		122.447163		-19.223198		2.681139		22.108174		55.190552		-41.136879		9.010508		78.665181		106.346721		-13.287343		-1.455123		18.948689		
1.352298		-0.894651		2.156718		87.752689		0.008485		0.450868		0.505977		92.381361		0.034341		-2.563953		-137.672440		18.291745		-0.649692		41.554938		89.502496		-13.321374		0.136060		-137.635228		20.559229		11.802961		42.469907		-65.753065		-2.424053		-2.558445		10.080241		-5.871712		4.236532		66.398441		-28.462641		18.550461		71.178512		122.592962		-19.802417		2.709118		22.484179		57.704085		-41.245193		10.939300		78.266502		105.250733		-13.473037		-1.174674		19.138315		
1.355530		-1.118168		1.940670		87.640902		0.008697		0.446903		0.504883		93.004168		0.076701		-2.484945		-138.236695		18.778795		-0.739220		41.294886		89.974552		-13.437784		-0.090833		-138.144565		20.806840		11.676452		42.541106		-65.698921		-2.639854		-2.554113		10.054474		-5.953793		4.176053		67.939588		-28.175263		18.971589		70.870133		122.722212		-19.851463		2.663425		22.755953		59.737944		-41.299338		12.174808		78.072127		104.840263		-13.365520		-0.988196		19.252279		
1.358763		-1.454757		1.833626		87.535198		0.009003		0.443320		0.503770		93.557767		0.148560		-2.251012		-138.828396		19.086371		-0.756685		40.775078		90.239968		-13.559652		-0.459173		-138.613281		21.048098		11.533206		42.651917		-65.747448		-2.986563		-2.546833		9.932544		-5.736606		4.004141		69.336171		-28.005264		19.312472		70.564292		122.849044		-20.214480		2.560623		23.158689		62.043006		-41.219106		13.807516		77.673409		103.924149		-13.447337		-0.672691		19.306038		
1.361995		-1.633220		1.637399		87.450989		0.009108		0.439732		0.502668		94.159958		0.184947		-2.196046		-139.353045		19.373415		-0.838616		40.599937		90.678069		-13.647347		-0.615141		-139.095736		21.274421		11.475370		42.692552		-65.711563		-3.130452		-2.527966		9.902617		-5.883023		4.010579		70.879926		-27.692423		19.799949		70.190336		123.031481		-20.071802		2.452407		23.356031		63.884593		-41.066756		14.707187		77.414704		103.794612		-13.234992		-0.465689		19.387955		
1.365227		-1.991418		1.635964		87.381248		0.009380		0.436663		0.501539		94.614587		0.259411		-1.910267		-139.941985		19.532099		-0.884589		39.902507		90.768129		-13.743229		-1.002356		-139.517511		21.508678		11.433610		42.798386		-65.880765		-3.497831		-2.498022		9.851408		-5.506773		3.715757		72.147279		-27.574521		19.995350		69.874762		123.167504		-20.439051		2.182460		23.828726		66.247268		-40.812455		16.449107		76.909208		102.820154		-13.454436		-0.106884		19.401983		
1.368460		-2.100773		1.427605		87.324621		0.009288		0.433341		0.500418		95.238033		0.291233		-1.874101		-140.442914		19.677816		-0.951330		39.728710		91.231741		-13.810468		-1.092477		-139.982613		21.665249		11.428395		42.829784		-65.829782		-3.533499		-2.424267		9.878482		-5.783954		3.745823		73.661241		-27.249627		20.521505		69.490124		123.337914		-20.145795		2.105601		24.040914		67.866196		-40.543066		17.128794		76.638769		102.796926		-13.360532		0.024356		19.491138		
1.371692		-2.214911		1.301377		87.290621		0.009232		0.430276		0.499296		95.796892		0.308896		-1.834068		-140.955722		19.683506		-1.048328		39.471762		91.591225		-13.869960		-1.176126		-140.433813		21.812732		11.446413		42.866159		-65.858992		-3.583873		-2.336237		9.894373		-5.921833		3.664449		75.126687		-26.965394		21.031717		69.076134		123.531231		-19.910106		1.992891		24.255969		69.584983		-40.279914		18.029853		76.312452		102.665563		-13.322799		0.158280		19.603661		
1.374924		-2.302323		1.127583		87.263393		0.009194		0.427623		0.498361		96.344273		0.310423		-1.836447		-141.350567		19.621802		-1.155772		39.252126		91.989307		-13.945987		-1.254117		-140.801247		21.909923		11.478894		42.894930		-65.901338		-3.605927		-2.249577		9.968389		-6.066348		3.581912		76.568137		-26.621243		21.462327		68.713074		123.686255		-19.685557		1.917489		24.416728		71.247230		-39.956753		18.765667		75.978530		102.517291		-13.362005		0.242100		19.684567		
1.378157		-2.372629		0.977257		87.224003		0.009050		0.424917		0.497275		96.924152		0.252172		-1.861277		-141.809963		19.528734		-1.266541		39.136430		92.379561		-14.019455		-1.272642		-141.214753		21.952445		11.499480		42.910293		-65.931102		-3.604962		-2.140914		10.161573		-6.227125		3.524989		77.927384		-26.199216		21.796045		68.302749		123.799296		-19.467337		1.912176		24.494556		72.681837		-39.553188		19.274538		75.695682		102.428364		-13.391404		0.279652		19.709648		
1.381389		-2.381644		0.867528		87.211151		0.009130		0.422593		0.496451		97.411078		0.199927		-2.072573		-142.167183		19.228353		-1.829666		38.631846		92.778611		-14.100356		-1.199171		-141.575123		21.950702		11.544617		42.979712		-66.045558		-3.583380		-1.980624		10.227952		-6.387060		3.357132		79.418856		-26.026765		22.530539		67.967788		123.878900		-19.277456		1.852629		24.789940		74.656334		-39.639361		21.060496		75.301734		101.379460		-14.176378		0.061407		19.716259		
1.384621		-2.421434		0.673207		87.167920		0.009096		0.420278		0.495605		97.994160		0.148022		-2.190515		-142.503897		18.987970		-2.098098		38.291418		93.243953		-14.202108		-1.170927		-141.918797		21.930547		11.606619		43.038121		-66.074854		-3.562867		-1.855142		10.395970		-6.627441		3.305342		80.795995		-25.693607		23.048935		67.639409		123.929308		-19.134215		1.822521		25.010731		76.270522		-39.512868		22.198589		75.002496		100.603746		-14.794310		-0.034518		19.752085		
1.387854		-2.450468		0.466982		87.164179		0.008907		0.418089		0.494783		98.552774		0.045187		-2.276521		-142.815099		18.790041		-2.254861		38.192721		93.745725		-14.244515		-1.138523		-142.249067		21.843088		11.644676		43.071436		-66.093962		-3.465767		-1.806265		10.569235		-6.948389		3.297571		82.189592		-25.259173		23.612462		67.253757		124.064165		-18.918492		1.724674		25.130358		77.691017		-39.419235		22.987461		74.826924		100.394115		-14.966746		-0.019098		19.726801		
1.391086		-2.410965		0.347570		87.195568		0.008765		0.416227		0.493952		98.955039		-0.071670		-2.488475		-143.098258		18.583508		-2.703494		38.038926		94.168627		-14.272384		-1.008341		-142.573731		21.696298		11.700750		43.145201		-66.212684		-3.306230		-1.741978		10.794243		-7.228397		3.340849		83.555711		-24.754353		24.151166		66.818176		124.095613		-18.915679		1.550863		25.276054		79.229980		-39.553168		24.260923		74.662998		99.608486		-15.734923		-0.098538		19.415214		
1.394318		-2.452516		0.139779		87.206148		0.008521		0.414269		0.493122		99.444224		-0.151501		-2.514852		-143.373361		18.486314		-2.772129		38.013835		94.661115		-14.295757		-0.979674		-142.884291		21.569319		11.797078		43.168956		-66.214599		-3.193711		-1.694581		10.914293		-7.595306		3.333860		84.814351		-24.340779		24.659561		66.507708		124.229153		-18.703481		1.411630		25.338034		80.542498		-39.440945		24.974439		74.503557		99.618113		-15.730373		-0.030844		19.306830		
1.397551		-2.445587		0.010213		87.259326		0.008284		0.412612		0.492266		99.766866		-0.257287		-2.607100		-143.615698		18.465074		-2.933932		37.986287		95.072008		-14.280689		-0.887117		-143.183196		21.406886		11.902558		43.195051		-66.299490		-3.023176		-1.662734		11.054200		-7.919632		3.349950		86.044503		-23.856058		25.151367		66.138413		124.326062		-18.567322		1.225331		25.339061		81.875227		-39.464326		25.848187		74.388907		99.634665		-15.854486		-0.002831		19.031556		
1.400783		-2.419200		-0.083204		87.306824		0.008045		0.411193		0.491412		99.981737		-0.319457		-2.683760		-143.837433		18.529697		-3.108607		37.948648		95.404167		-14.245692		-0.748558		-143.460149		21.280768		12.030193		43.225783		-66.418816		-2.844945		-1.625692		11.165528		-8.210396		3.371554		87.223646		-23.348499		25.622460		65.752459		124.353927		-18.502589		1.016509		25.263771		83.180449		-39.563361		26.802764		74.311243		99.643224		-16.028561		-0.023164		18.622927		
1.404015		-2.417062		-0.190258		87.332272		0.007853		0.409933		0.490564		100.164397		-0.332754		-2.719673		-144.020432		18.634751		-3.224710		37.918075		95.691497		-14.226234		-0.660121		-143.697546		21.225564		12.128561		43.249665		-66.517343		-2.715496		-1.585898		11.262257		-8.401264		3.377950		88.252435		-22.820216		25.913656		65.429204		124.335564		-18.479902		0.898177		25.169541		84.312390		-39.477235		27.426405		74.218469		99.650373		-16.141053		-0.057331		18.301909		
1.407247		-2.361658		-0.161116		87.374750		0.007794		0.409067		0.489746		100.132563		-0.379015		-2.858595		-144.187036		18.783566		-3.356524		37.774892		95.793049		-14.221189		-0.500736		-143.922088		21.201858		12.329502		43.306458		-66.771795		-2.558931		-1.593003		11.397611		-8.560828		3.442684		89.363522		-22.294502		26.462205		65.015406		124.095234		-18.658666		0.660948		24.843694		85.735395		-39.776330		28.694945		74.140713		99.652795		-16.295883		-0.349702		17.566584		
1.410480		-2.395863		-0.329896		87.358114		0.007640		0.407998		0.488946		100.300551		-0.359059		-2.863945		-144.302336		19.025529		-3.440265		37.752634		96.035613		-14.225387		-0.496559		-144.096451		21.229143		12.368377		43.322586		-66.781259		-2.493713		-1.560302		11.332405		-8.728844		3.371976		90.228738		-21.820250		26.709110		64.768898		124.070297		-18.610934		0.652275		24.765382		86.692523		-39.579851		29.083153		74.042408		99.741798		-16.163674		-0.395930		17.440324		
1.413712		-2.398515		-0.403424		87.345122		0.007589		0.407001		0.488098		100.344749		-0.362827		-2.944383		-144.460309		19.397127		-3.521777		37.689332		96.163610		-14.249684		-0.464785		-144.294309		21.297620		12.387942		43.348812		-66.854516		-2.413845		-1.558734		11.187984		-8.932875		3.256450		91.139843		-21.374988		27.204974		64.464359		124.014890		-18.621054		0.638527		24.608240		87.858909		-39.682793		29.950238		73.918386		100.064634		-15.729392		-0.586165		17.324796		
1.416944		-2.419692		-0.535699		87.317539		0.007513		0.406443		0.487399		100.385784		-0.351750		-2.984206		-144.499069		19.617009		-3.572828		37.638111		96.272904		-14.264862		-0.492841		-144.373634		21.349780		12.404504		43.365932		-66.929486		-2.377110		-1.518821		11.147437		-8.978026		3.239447		91.890943		-20.921544		27.360704		64.274080		123.934540		-18.720094		0.661195		24.463710		88.766627		-39.469817		30.284593		73.825757		100.230545		-15.547810		-0.711022		17.213243		
1.420177		-2.454478		-0.587454		87.281536		0.007576		0.405848		0.486642		100.328127		-0.320084		-3.059136		-144.588266		20.061786		-3.691910		37.534420		96.306071		-14.310542		-0.537580		-144.490355		21.442220		12.352116		43.393704		-67.033897		-2.377354		-1.504808		10.977200		-9.023446		3.191789		92.646254		-20.545046		27.741120		64.040124		123.817954		-18.966045		0.679615		24.202064		89.861331		-39.421225		31.042208		73.648603		100.639344		-15.102209		-0.878622		17.094310		
1.423409		-2.504286		-0.766371		87.252450		0.007502		0.405372		0.485991		100.383401		-0.310546		-3.087818		-144.596695		20.290671		-3.766170		37.508080		96.460795		-14.337279		-0.637908		-144.541341		21.460614		12.340846		43.402244		-67.032239		-2.368438		-1.448004		10.974250		-9.051722		3.208263		93.250382		-20.126719		27.780831		63.867336		123.772581		-19.059296		0.722039		24.095181		90.571578		-39.022329		31.154143		73.466692		100.760717		-15.011407		-0.858186		17.036212		
